<svg xmlns="http://www.w3.org/2000/svg" width="24" height="24" fill="#1fb4cc" viewBox="0 0 24 24">
  <path d="M20.447 20.452h-3.554v-5.569c0-1.328-.025-3.037-1.849-3.037-1.851 0-2.136 1.445-2.136 2.939v5.667H9.354V9h3.414v1.561h.049c.476-.9 1.637-1.849 3.369-1.849 3.599 0 4.264 2.368 4.264 5.455v6.285zM5.337 7.433c-1.144 0-2.069-.926-2.069-2.069 0-1.144.925-2.069 2.069-2.069 1.144 0 2.069.925 2.069 2.069 0 1.143-.925 2.069-2.069 2.069zM6.956 20.452H3.717V9h3.239v11.452zM22.225 0H1.771C.792 0 0 .774 0 1.729v20.542C0 23.226.792 24 1.771 24h20.451C23.2 24 24 23.226 24 22.271V1.729C24 .774 23.2 0 22.225 0z"/>
</svg>
