<?xml version="1.0" encoding="UTF-8"?>
<svg width="64" height="64" viewBox="0 0 24 24" fill="none" xmlns="http://www.w3.org/2000/svg" role="img" aria-label="Phone">
  <title>Phone</title>
  <path d="M6.62 10.79a15.05 15.05 0 006.59 6.59l2.2-2.2a1 1 0 01.95-.27c1.05.28 2.18.43 3.34.43a1 1 0 011 1v3.5a1 1 0 01-1 1C9.85 21.85 2.15 14.15 2.15 4.5A1 1 0 013.15 3.5h3.5a1 1 0 011 1c0 1.16.15 2.29.43 3.34a1 1 0 01-.27.95l-2.2 2.2z"
        stroke="#1fb4cc" stroke-width="1.5" stroke-linecap="round" stroke-linejoin="round" fill="none"/>
</svg>
