<svg xmlns="http://www.w3.org/2000/svg" width="24" height="24" fill="#1fb4cc" viewBox="0 0 24 24">
  <path d="M12 0C5.373 0 0 5.373 0 12c0 4.99 3.052 9.268 7.385 11.06.541.099.739-.235.739-.522 0-.257-.01-1.109-.015-2.012-3.005.653-3.637-1.448-3.637-1.448-.492-1.252-1.201-1.586-1.201-1.586-.982-.671.074-.657.074-.657 1.085.076 1.655 1.114 1.655 1.114.964 1.652 2.528 1.175 3.146.899.097-.699.377-1.175.686-1.446-2.397-.272-4.918-1.199-4.918-5.338 0-1.179.422-2.144 1.113-2.897-.112-.272-.482-1.367.107-2.85 0 0 .905-.289 2.963 1.104a10.324 10.324 0 0 1 2.698-.362c.915.004 1.838.124 2.698.362 2.057-1.393 2.962-1.104 2.962-1.104.589 1.483.22 2.578.108 2.85.692.753 1.113 1.718 1.113 2.897 0 4.15-2.525 5.062-4.93 5.329.388.334.733.992.733 2.004 0 1.447-.013 2.616-.013 2.973 0 .289.196.625.745.518C20.95 21.265 24 16.988 24 12c0-6.627-5.373-12-12-12z"/>
</svg>
